<svg xmlns="http://www.w3.org/2000/svg" width="200" height="166.932" viewBox="0 0 200 166.932"><path d="M437.208,302.284a41.937,41.937,0,0,0-41.891,41.891c0,6.273,2.584,14.544,6.285,23.987s8.6,19.9,13.483,29.671c9.776,19.545,19.541,36.37,19.541,36.37a2.987,2.987,0,0,0,5.165,0s9.766-16.825,19.541-36.37c4.888-9.772,9.782-20.228,13.483-29.671s6.285-17.714,6.285-23.987a41.937,41.937,0,0,0-41.891-41.891Zm0,16.148a26.542,26.542,0,1,1-26.543,26.541,26.542,26.542,0,0,1,26.543-26.541Zm-61.367,83.043a5.287,5.287,0,0,0-3.64,1.572,9.324,9.324,0,0,0-1.437,2.1l-33.12,57.828a3.8,3.8,0,0,0-.191,3.113,4.317,4.317,0,0,0,1.451,1.825,6.057,6.057,0,0,0,3.818,1.306H531.694a6.057,6.057,0,0,0,3.818-1.306,4.318,4.318,0,0,0,1.451-1.825,3.8,3.8,0,0,0-.191-3.113l-33.12-57.828a9.326,9.326,0,0,0-1.437-2.1,5.288,5.288,0,0,0-3.64-1.572h-33.3c-9.8,19.543-19.477,36.218-19.477,36.218-3.664,6.309-13.52,6.309-17.184,0,0,0-9.679-16.675-19.478-36.218Z" transform="translate(-337.208 -302.284)"/></svg>